<svg xmlns="http://www.w3.org/2000/svg" xmlns:xlink="http://www.w3.org/1999/xlink" width="400" height="400" viewBox="0 0 400 400">
<rect data-name="background" width="100%" height="100%" fill="#5b6a67"/><g data-name="watermark" class="watermark-logodesign" stroke="#ffffff" transform="translate(10, 320) scale(1.5) rotate(-45)" style="opacity:0.040000010281801224;"><path fill="#000000" d="M22.92,19.2q3.04,1.68,4.8,4.7t1.76,6.78t-1.76,6.78t-4.8,4.7t-6.68,1.68t-6.7-1.68t-4.84-4.7t-1.78-6.78t1.78-6.78t4.84-4.7t6.7-1.68t6.68,1.68z M11.14,21.74q-2.26,1.3-3.54,3.62t-1.28,5.32t1.28,5.32t3.54,3.6t5.1,1.28t5.08-1.28t3.52-3.6t1.28-5.32t-1.28-5.32t-3.54-3.62t-5.06-1.3q-2.84,0-5.1,1.3z M21.4,24.76l-1.8,2.32q-0.72-0.56-1.4-0.78t-1.48-0.22q-1.44,0-2.3,1.1t-0.86,3.46q0,2.32,0.82,3.44t2.26,1.12q0.96,0,1.74-0.3t1.54-0.9l1.64,2.44q-2.24,2.04-5.2,2.04q-3.2,0-5.08-2.04t-1.88-5.8q0-2.4,0.9-4.16t2.48-2.7t3.54-0.94q2.92,0,5.08,1.92z M41.2,20.32l0,22.96l10.96,0l-0.64,4.72l-16.2,0l0-27.68l5.88,0z M71.92,29.14q2.68,2.98,2.68,8.26q0,3.36-1.22,5.9t-3.52,3.94t-5.42,1.4q-4.76,0-7.46-2.98t-2.7-8.26q0-3.36,1.22-5.9t3.52-3.94t5.46-1.4q4.76,0,7.44,2.98z M61.26,32.1q-1.06,1.7-1.06,5.3t1.06,5.3t3.18,1.7t3.18-1.7t1.06-5.3t-1.04-5.3t-3.16-1.7q-2.16,0-3.22,1.7z M97.88,27.96q-2.08,0.8-6.12,0.8q2,0.88,2.96,2.18t0.96,3.26q0,2.04-1.06,3.66t-3.04,2.54t-4.62,0.92q-1.4,0-2.48-0.28q-0.8,0.52-0.8,1.4q0,0.64,0.5,1.02t1.94,0.38l3.24,0q2.36,0,4.14,0.78t2.76,2.16t0.98,3.14q0,3.24-2.78,5.06t-8.02,1.82q-3.76,0-5.94-0.78t-3.06-2.26t-0.88-3.72l5.08,0q0,1.04,0.4,1.66t1.46,0.92t3.06,0.3q2.76,0,3.86-0.68t1.1-1.92q0-1.12-0.84-1.72t-2.48-0.6l-3.12,0q-3.16,0-4.72-1.18t-1.56-2.98q0-1.12,0.66-2.18t1.82-1.78q-1.96-1.08-2.86-2.54t-0.9-3.5q0-2.32,1.14-4.06t3.2-2.68t4.7-0.94q3.28,0.08,5.4-0.56t4.52-2z M84.14,30.98q-0.94,1.02-0.94,2.78q0,1.8,0.94,2.84t2.58,1.04q1.72,0,2.6-1t0.88-2.96q0-3.72-3.52-3.72q-1.6,0-2.54,1.02z M117.04,29.14q2.68,2.98,2.68,8.26q0,3.36-1.22,5.9t-3.52,3.94t-5.42,1.4q-4.76,0-7.46-2.98t-2.7-8.26q0-3.36,1.22-5.9t3.52-3.94t5.46-1.4q4.76,0,7.44,2.98z M106.38,32.1q-1.06,1.7-1.06,5.3t1.06,5.3t3.18,1.7t3.18-1.7t1.06-5.3t-1.04-5.3t-3.16-1.7q-2.16,0-3.22,1.7z M141.78,23.26q3.9,2.94,3.9,10.78q0,7.68-3.82,10.82t-9.78,3.14l-7.92,0l0-27.68l7.24,0q6.48,0,10.38,2.94z M130.04,24.64l0,19.04l2.4,0q3.4,0,5.26-2.1t1.86-7.54q0-3.76-0.94-5.84t-2.5-2.82t-3.8-0.74l-2.28,0z M167.84,39.12l-13.24,0q0.28,2.88,1.56,4.08t3.48,1.2q1.36,0,2.56-0.44t2.6-1.4l2.36,3.2q-3.56,2.88-8.04,2.88q-5,0-7.68-3t-2.68-8.12q0-3.24,1.14-5.82t3.32-4.06t5.18-1.48q4.52,0,7.04,2.84t2.52,7.92q0,0.4-0.12,2.2z M162.32,35.32q0-5.28-3.8-5.28q-1.76,0-2.74,1.3t-1.18,4.22l7.72,0l0-0.24z M186.8,28.72l-2.16,3.24q-2.68-1.68-5.28-1.68q-1.4,0-2.16,0.52t-0.76,1.4q0,0.64,0.34,1.08t1.28,0.84t2.82,0.96q3.36,0.92,5,2.46t1.64,4.22q0,2.12-1.22,3.68t-3.3,2.38t-4.64,0.82q-2.68,0-4.88-0.82t-3.76-2.26l2.8-3.12q2.68,2.08,5.68,2.08q1.6,0,2.54-0.62t0.94-1.7q0-0.84-0.36-1.32t-1.32-0.9t-3-0.98q-3.2-0.88-4.74-2.5t-1.54-4.02q0-1.8,1.04-3.24t2.94-2.26t4.42-0.82q4.48,0,7.68,2.56z M196.92,26.8l0,21.2l-5.68,0l0-21.2l5.68,0z M196.54,16.82q0.98,0.94,0.98,2.38t-0.98,2.38t-2.5,0.94t-2.48-0.94t-0.96-2.38t0.96-2.38t2.48-0.94t2.5,0.94z M221.48,27.96q-2.08,0.8-6.12,0.8q2,0.88,2.96,2.18t0.96,3.26q0,2.04-1.06,3.66t-3.04,2.54t-4.62,0.92q-1.4,0-2.48-0.28q-0.8,0.52-0.8,1.4q0,0.64,0.5,1.02t1.94,0.38l3.24,0q2.36,0,4.14,0.78t2.76,2.16t0.98,3.14q0,3.24-2.78,5.06t-8.02,1.82q-3.76,0-5.94-0.78t-3.06-2.26t-0.88-3.72l5.08,0q0,1.04,0.4,1.66t1.46,0.92t3.06,0.3q2.76,0,3.86-0.68t1.1-1.92q0-1.12-0.84-1.72t-2.48-0.6l-3.12,0q-3.16,0-4.72-1.18t-1.56-2.98q0-1.12,0.66-2.18t1.82-1.78q-1.96-1.08-2.86-2.54t-0.9-3.5q0-2.32,1.14-4.06t3.2-2.68t4.7-0.94q3.28,0.08,5.4-0.56t4.52-2z M207.74,30.98q-0.94,1.02-0.94,2.78q0,1.8,0.94,2.84t2.58,1.04q1.72,0,2.6-1t0.88-2.96q0-3.72-3.52-3.72q-1.6,0-2.54,1.02z M240.48,27.86q1.56,1.7,1.56,4.7l0,15.44l-5.68,0l0-14.48q0-1.72-0.58-2.42t-1.74-0.7q-1.2,0-2.18,0.74t-1.9,2.22l0,14.64l-5.68,0l0-21.2l4.92,0l0.44,2.68q1.32-1.64,2.9-2.48t3.58-0.84q2.8,0,4.36,1.7z M251.84,42.8q1,1,1,2.4t-1,2.42t-2.44,1.02q-1.4,0-2.4-1.02t-1-2.42t1-2.4t2.4-1q1.44,0,2.44,1z M271.8,48l-1.56-6.2l-8.68,0l-1.56,6.2l-6.12,0l8.52-27.68l7.16,0l8.48,27.68l-6.24,0z M262.68,37.44l6.44,0l-3.24-12.76z M286.48,20.32l0,27.68l-5.88,0l0-27.68l5.88,0z"/></g><g data-name="container" data="container_num:9" fill="#e8faf6" transform="translate(44.80000000000001,79.43752558219045) scale(6.311016736125508)"><path xmlns="http://www.w3.org/2000/svg" d="M24.6 38.18A64.66 64.66 0 0 1 .2 33.74a.32.32 0 0 1-.19-.34V4.74a.31.31 0 0 1 0-.11.32.32 0 0 1 .18-.21 69.27 69.27 0 0 1 48.81 0 .32.32 0 0 1 .18.18.32.32 0 0 1 0 .15V33.4a.32.32 0 0 1 0 .12.32.32 0 0 1-.18.2 64.66 64.66 0 0 1-24.4 4.46zm-24-4.95a68.77 68.77 0 0 0 47.91 0V4.94a68.77 68.77 0 0 0-47.91 0v28.29z"/><path xmlns="http://www.w3.org/2000/svg" d="M24.6 36.37a64.22 64.22 0 0 1-22.58-3.85.32.32 0 0 1-.2-.3V5.95a.32.32 0 0 1 .2-.3 68.19 68.19 0 0 1 45.16 0 .32.32 0 0 1 .2.3v26.27a.32.32 0 0 1-.2.3 64.21 64.21 0 0 1-22.58 3.85zM2.45 32.01a67.68 67.68 0 0 0 44.29 0V6.18a67.68 67.68 0 0 0-44.29 0v25.83z"/></g><g data-name="icon" fill="#e8faf6" data="id:4691033" transform="translate(162.01946510358482,95.2508574735597) scale(1.186900257943741)">
    <path d="M39.208,19.612V17.66h10.34v1.952c0,1.563,1.271,2.835,2.835,2.835h5.434c1.563,0,2.836-1.271,2.836-2.835V9.128  c0-1.563-1.272-2.835-2.836-2.835h-5.434c-1.563,0-2.835,1.271-2.835,2.835v1.952h-10.34V9.128c0-1.563-1.271-2.835-2.835-2.835  h-5.435c-1.563,0-2.835,1.271-2.835,2.835v10.484c0,1.563,1.271,2.835,2.835,2.835h5.435C37.937,22.447,39.208,21.176,39.208,19.612  z M49.548,13.08v2.58h-10.34v-2.58H49.548z M60.73,48.169V28.53c0-0.553-0.447-1-1-1H43.13c-3.265,0-5.92,2.655-5.92,5.92v19.227  c0,0.013-0.002,0.026-0.002,0.039c0,3.054,2.484,5.538,5.538,5.538h16.986c0.553,0,1-0.447,1-1v-9.075  C60.732,48.175,60.731,48.172,60.73,48.169z M58.732,56.254H42.746c-1.948,0-3.532-1.582-3.537-3.529  c0-0.002,0.001-0.003,0.001-0.005v-0.023c0.011-1.941,1.592-3.518,3.536-3.518h15.986V56.254z M28.38,38.251V37.35  c0-1.517-1.229-2.75-2.74-2.75H23.1c-1.511,0-2.739,1.233-2.739,2.75v0.787H15.77V37.35c0-1.517-1.229-2.75-2.739-2.75h-2.54  c-1.511,0-2.74,1.233-2.74,2.75v0.901c-1.997,0.434-3.553,2.143-3.704,4.252L3.28,53.13c-0.096,1.319,0.366,2.631,1.268,3.6  s2.177,1.524,3.5,1.524c1.497,0,2.927-0.715,3.824-1.913l2.512-3.349c0.446-0.595,1.157-0.95,1.9-0.95h3.561  c0.744,0,1.454,0.354,1.9,0.949l2.513,3.35c0.897,1.198,2.327,1.913,3.823,1.913c1.323,0,2.599-0.556,3.5-1.524  s1.363-2.28,1.268-3.6l-0.766-10.627C31.932,40.394,30.377,38.686,28.38,38.251z M30.117,55.367  c-0.532,0.572-1.255,0.887-2.036,0.887c-0.87,0-1.701-0.416-2.224-1.112l-2.513-3.35c-0.82-1.096-2.129-1.75-3.5-1.75h-3.561  c-1.369,0-2.678,0.654-3.5,1.75l-2.512,3.35c-0.522,0.696-1.354,1.112-2.225,1.112c-0.781,0-1.504-0.314-2.036-0.887  c-0.531-0.571-0.793-1.314-0.737-2.093L6.04,42.647c0.102-1.408,1.287-2.511,2.699-2.511h18.65c1.412,0,2.598,1.103,2.699,2.511  l0.766,10.627C30.91,54.053,30.648,54.796,30.117,55.367z M14.872,45.399c0,1.894-1.54,3.434-3.434,3.434  c-1.893,0-3.433-1.54-3.433-3.434c0-1.893,1.54-3.433,3.433-3.433C13.332,41.967,14.872,43.507,14.872,45.399z M28.123,45.399  c0,1.894-1.54,3.434-3.433,3.434c-1.894,0-3.434-1.54-3.434-3.434c0-1.893,1.54-3.433,3.434-3.433  C26.583,41.967,28.123,43.507,28.123,45.399z M8.739,13.335c0.854,0.381,1.768,0.567,2.681,0.567c0.801,0,1.595-0.161,2.353-0.444  v3.751H6.583c-0.298,0-0.58,0.133-0.77,0.361c-0.19,0.229-0.269,0.531-0.213,0.824l1.682,8.923c0.336,1.79,1.903,3.089,3.725,3.089  h7.531c1.821,0,3.388-1.299,3.726-3.088l1.682-8.924c0.056-0.293-0.022-0.595-0.213-0.824c-0.189-0.229-0.472-0.361-0.77-0.361  h-7.19v-3.75c0.757,0.283,1.551,0.443,2.352,0.443c0.913,0,1.827-0.187,2.681-0.567c2.149-0.959,3.643-3.025,3.898-5.393  c0.039-0.357-0.118-0.709-0.41-0.919c-1.932-1.394-4.47-1.662-6.617-0.703c-1.218,0.543-2.214,1.45-2.904,2.557  c-0.691-1.108-1.686-2.014-2.904-2.557C9.716,5.36,7.182,5.631,5.25,7.023c-0.292,0.21-0.449,0.562-0.41,0.919  C5.096,10.311,6.59,12.377,8.739,13.335z M20.299,26.948c-0.16,0.846-0.9,1.459-1.761,1.459h-7.531c-0.86,0-1.601-0.613-1.76-1.459  L7.789,19.21h13.968L20.299,26.948z"/>
    </g><g data-name="business_name" fill="#e8faf6" data="id:102" transform="translate(144.27238511927055,127.72146935295139) scale(3.144899042987662)"><path d="M2.5,48l0-29.98l5.66,0l0,8.76l0.38-0.38l9.34,0l4.12,4.12l0,17.48l-5.66,0l0-14.72l-1.22-1.24l-5.36,0l-1.6,1.62l0,14.34l-5.66,0z M3.04,47.46l4.58,0l0-14.02l1.92-1.92l5.8,0l1.54,1.52l0,14.42l4.58,0l0-16.72l-3.8-3.8l-8.9,0l-1.14,1.14l0-9.52l-4.58,0l0,28.9z M25.7,31.4l0-4.76l1.76-1.7l2.62,0l0.4-0.4l0-1.68l-0.4-0.4l-1.5,0l-0.4,0.4l0,1.24l-2.48,0l0-2.4l1.76-1.7l3.72,0l1.76,1.68l0,3.98l-1.76,1.74l-2.6,0l-0.4,0.42l0,1.12l4.74,0l0,2.46l-7.22,0z M26.02,31.08l6.6,0l0-1.82l-4.76,0l0-1.56l0.62-0.62l2.58,0l1.56-1.56l0-3.68l-1.56-1.52l-3.46,0l-1.58,1.52l0,1.94l1.84,0l0-1.04l0.6-0.6l1.76,0l0.56,0.6l0,1.94l-0.58,0.58l-2.6,0l-1.58,1.52l0,4.3z"/></g><g data-name="slogan" fill="#e8faf6" data="id:168" transform="translate(150.1210150657951,280.8067338080654) scale(0.4195036626938834)"><path d="M8.88,31.92l0,8.24l-4.08,0l0-20.72l4.08,0l0,8.28q1.08-0.52,2.44-0.52q0.8,0,2.84,0.28q2.32,0.32,3.4,0.32q1.52,0,2.6-0.52l0-7.84l4.08,0l0,20.72l-4.08,0l0-8.68q-1.04,0.52-2.44,0.52q-1.08,0-3.2-0.28q-2.04-0.28-3.04-0.28q-1.48,0-2.6,0.48z M52,29.64q0-2.2-1.2-3.8q-1.04-1.4-2.92-2.16q-1.72-0.68-3.8-0.68t-3.84,0.72q-1.88,0.76-2.92,2.24q-1.16,1.6-1.16,3.84t1.2,3.84q1.04,1.44,2.92,2.24q1.76,0.72,3.8,0.72t3.84-0.8q1.84-0.84,2.92-2.36q1.16-1.64,1.16-3.8z M56.32,29.6q0,3.4-1.8,6.04q-1.64,2.44-4.52,3.84q-2.76,1.32-5.96,1.32t-5.96-1.32q-2.84-1.36-4.48-3.76q-1.76-2.64-1.76-6t1.8-5.96q1.64-2.4,4.52-3.72q2.76-1.28,5.96-1.28t5.92,1.2q2.84,1.28,4.48,3.64q1.8,2.56,1.8,6z M68.04,23.56l0,4.72q1.24-0.72,3-1q1.36-0.2,3.48-0.2l2.12,0q1.08,0,1.58-0.44t0.5-1.32t-0.56-1.32t-1.52-0.44l-8.6,0z M68.04,32.48l0,3.52l8.6,0q1.48,0,2.24-0.44q1-0.6,1-1.96q0-1.16-0.78-1.74t-2.46-0.58l-2.12,0q-2.76,0-4,0.24q-1.08,0.2-2.48,0.96z M84,33.68q0,3.04-1.96,4.76t-5.4,1.72l-12.72,0l0-20.72l12.72,0q1.68,0,3.12,0.74t2.3,2.08t0.86,3.02q0,2.32-1.36,3.56q1.16,0.68,1.8,1.98t0.64,2.86z M96.12,23.56l0,4.72q1.24-0.72,3-1q1.36-0.2,3.48-0.2l2.12,0q1.08,0,1.58-0.44t0.5-1.32t-0.56-1.32t-1.52-0.44l-8.6,0z M96.12,32.48l0,3.52l8.6,0q1.48,0,2.24-0.44q1-0.6,1-1.96q0-1.16-0.78-1.74t-2.46-0.58l-2.12,0q-2.76,0-4,0.24q-1.08,0.2-2.48,0.96z M112.08,33.68q0,3.04-1.96,4.76t-5.4,1.72l-12.72,0l0-20.72l12.72,0q1.68,0,3.12,0.74t2.3,2.08t0.86,3.02q0,2.32-1.36,3.56q1.16,0.68,1.8,1.98t0.64,2.86z M138.04,19.44l-8.56,12.36l0,8.36l-4.08,0l0-8.36l-8.72-12.36l5.2,0l5.52,8.16l5.68-8.16l4.96,0z  M159.16,31.92l0,8.24l-4.08,0l0-20.72l4.08,0l0,8.28q1.08-0.52,2.44-0.52q0.8,0,2.84,0.28q2.32,0.32,3.4,0.32q1.52,0,2.6-0.52l0-7.84l4.08,0l0,20.72l-4.08,0l0-8.68q-1.04,0.52-2.44,0.52q-1.08,0-3.2-0.28q-2.04-0.28-3.04-0.28q-1.48,0-2.6,0.48z M193.76,40.8l-0.08,0q-4.56,0-7.12-2.12q-2.84-2.24-2.84-6.64l0-12.6l4.12,0l0,12.6q0,2.52,1.64,3.6q1.4,1,4.24,1t4.28-1q1.6-1.08,1.6-3.6l0-12.6l4.12,0l0,12.6q0,4.4-2.8,6.64q-2.6,2.12-7.16,2.12z M217.04,23.56l0,4.72q1.24-0.72,3-1q1.36-0.2,3.48-0.2l2.12,0q1.08,0,1.58-0.44t0.5-1.32t-0.56-1.32t-1.52-0.44l-8.6,0z M217.04,32.48l0,3.52l8.6,0q1.48,0,2.24-0.44q1-0.6,1-1.96q0-1.16-0.78-1.74t-2.46-0.58l-2.12,0q-2.76,0-4,0.24q-1.08,0.2-2.48,0.96z M233,33.68q0,3.04-1.96,4.76t-5.4,1.72l-12.72,0l0-20.72l12.72,0q1.68,0,3.12,0.74t2.3,2.08t0.86,3.02q0,2.32-1.36,3.56q1.16,0.68,1.8,1.98t0.64,2.86z"/></g></svg>